<svg width="701" height="392" viewBox="0 0 701 392" fill="none" xmlns="http://www.w3.org/2000/svg">
<path d="M688.4 324.875C685 321.575 681.1 319.175 676.7 317.475C672.2 315.775 667.4 314.975 662.1 314.975C656.7 314.975 651.7 315.775 647.3 317.475C642.8 319.175 638.9 321.675 635.5 325.075C631.8 328.675 628.9 332.875 627 337.675C625.1 342.475 624.1 347.675 624.1 353.175C624.1 358.675 625.1 363.975 627 368.675C628.9 373.475 631.8 377.675 635.5 381.275C638.9 384.575 642.9 387.075 647.4 388.775C651.9 390.475 656.8 391.375 662.2 391.375C669.6 391.375 676 389.775 681.6 386.675C687.2 383.575 691.7 378.975 695.1 372.875C696.8 369.975 698.1 366.675 698.9 363.075C699.7 359.375 700.1 355.375 700.1 351.075V348.975H670.4V357.675H690C688.8 365.475 685.8 371.575 680.7 375.975C675.7 380.475 669.4 382.675 661.8 382.675C657.9 382.675 654.3 381.975 651 380.675C647.7 379.375 644.8 377.475 642.3 374.875C639.5 371.975 637.4 368.775 636 365.075C634.6 361.375 633.9 357.375 633.9 353.075C633.9 348.775 634.6 344.775 636 341.175C637.4 337.475 639.5 334.275 642.3 331.375C644.8 328.775 647.7 326.775 651 325.475C654.3 324.175 657.8 323.575 661.8 323.575C665.8 323.575 669.5 324.275 672.9 325.575C676.3 326.975 679.2 328.875 681.7 331.475L688.4 324.875ZM563.2 389.875V341.375C563.2 339.475 563.1 337.375 562.8 335.275C562.6 333.075 562.2 330.775 561.6 328.175C562 329.475 562.5 330.675 563.2 331.975C563.8 333.175 564.9 334.775 566.2 336.775L603.5 389.875H611.3V316.275H602V365.275C602 366.875 602.2 368.675 602.5 370.675C602.8 372.675 603.3 374.775 603.9 376.975C603.1 375.075 602.3 373.275 601.4 371.675C600.5 370.075 599.6 368.575 598.6 367.175L562.9 316.275H553.9V389.875H563.2ZM536.6 316.275H527.1V389.875H536.6V316.275ZM503 324.875C499.6 321.575 495.7 319.175 491.3 317.475C486.8 315.775 482 314.975 476.7 314.975C471.3 314.975 466.3 315.775 461.9 317.475C457.4 319.175 453.5 321.675 450.1 325.075C446.4 328.675 443.5 332.875 441.6 337.675C439.7 342.475 438.7 347.675 438.7 353.175C438.7 358.675 439.7 363.975 441.6 368.675C443.5 373.475 446.4 377.675 450.1 381.275C453.5 384.575 457.5 387.075 462 388.775C466.5 390.475 471.4 391.375 476.8 391.375C484.2 391.375 490.6 389.775 496.2 386.675C501.8 383.575 506.3 378.975 509.7 372.875C511.4 369.975 512.7 366.675 513.5 363.075C514.3 359.375 514.7 355.375 514.7 351.075V348.975H485V357.675H504.6C503.4 365.475 500.4 371.575 495.3 375.975C490.3 380.475 484 382.675 476.4 382.675C472.5 382.675 468.9 381.975 465.6 380.675C462.3 379.375 459.4 377.475 456.9 374.875C454.1 371.975 452 368.775 450.6 365.075C449.2 361.375 448.5 357.375 448.5 353.075C448.5 348.775 449.2 344.775 450.6 341.175C452 337.475 454.1 334.275 456.9 331.375C459.4 328.775 462.3 326.775 465.6 325.475C468.9 324.175 472.4 323.575 476.4 323.575C480.4 323.575 484.1 324.275 487.4 325.575C490.8 326.975 493.7 328.875 496.2 331.475L503 324.875ZM377.8 389.875V341.375C377.8 339.475 377.7 337.375 377.4 335.275C377.2 333.075 376.8 330.775 376.2 328.175C376.6 329.475 377.1 330.675 377.8 331.975C378.4 333.175 379.5 334.775 380.8 336.775L418.1 389.875H425.9V316.275H416.5V365.275C416.5 366.875 416.7 368.675 417 370.675C417.3 372.675 417.8 374.775 418.4 376.975C417.6 375.075 416.8 373.275 415.9 371.675C415 370.075 414.1 368.575 413.1 367.175L377.4 316.275H368.4V389.875H377.8ZM351.9 389.875V381.275H323.2V356.475H345.2V347.975H323.2V324.975H351.9V316.275H313.7V389.875H351.9ZM302.2 389.875V380.975H276.9V316.375H267.4V389.975H302.2V389.875ZM255.9 389.875V380.975H230.6V316.375H221V389.975H255.9V389.875ZM153.4 389.875L160 372.875H194.6L201.1 389.875H212.3L181.3 316.175H173.3L143.3 389.875H153.4ZM175 334.575C175.2 334.075 175.5 333.275 175.9 331.975C176.3 330.775 176.7 329.275 177.2 327.675C177.7 329.275 178.1 330.775 178.5 331.975C178.9 333.175 179.2 334.075 179.4 334.475L191 364.075H163.3L175 334.575ZM86 389.875V356.275H124.6V389.875H134.1V316.275H124.6V347.675H86V316.375H76.5V389.975H86V389.875ZM63.8 324.275C60.4 321.175 56.6 318.775 52.3 317.175C48 315.575 43.2 314.775 38 314.775C32.6 314.775 27.6 315.575 23.2 317.275C18.7 318.975 14.8 321.475 11.4 324.875C7.69999 328.475 4.79999 332.675 2.89999 337.475C0.999994 342.275 0 347.475 0 352.975C0 358.475 0.999994 363.775 2.89999 368.475C4.79999 373.275 7.69999 377.475 11.4 381.075C14.8 384.375 18.8 386.875 23.3 388.575C27.8 390.275 32.7 391.175 38.1 391.175C43.4 391.175 48.3 390.375 52.7 388.675C57.1 386.975 61.1 384.475 64.6 381.075L58.3 374.175C55.9 376.975 52.9 378.975 49.6 380.375C46.2 381.775 42.4 382.475 38.2 382.475C34.2 382.475 30.6 381.775 27.2 380.475C23.9 379.175 20.9 377.275 18.4 374.675C15.6 371.775 13.5 368.575 12.1 364.875C10.7 361.175 10 357.175 10 352.875C10 348.475 10.7 344.475 12.1 340.875C13.5 337.175 15.6 333.975 18.4 331.175C21 328.575 24 326.575 27.3 325.275C30.6 323.975 34.2 323.375 38.2 323.375C42.1 323.375 45.7 323.975 48.9 325.275C52.2 326.575 55.1 328.475 57.8 331.075L63.8 324.275Z" fill="black"/>
<path d="M467.1 47.275L416.9 0.675005C416.2 0.0750051 415.3 -0.125001 414.4 0.074999C413.6 0.374999 412.9 1.07502 412.8 1.87502L410.2 14.775C346.3 -11.425 271.7 14.375 243.2 73.075C233.6 92.875 230.1 114.275 232.9 135.675C233.9 147.575 236.9 159.375 242 170.775C261.4 213.575 306.3 239.575 353.2 239.575C368.1 239.575 383.1 236.975 397.6 231.375C422.3 221.975 442.2 205.575 455.1 183.875C455.6 183.075 455.3 182.075 454.6 181.575C453.8 181.075 452.8 181.275 452.3 182.075C440.5 198.875 423.6 211.875 403.3 219.575C376.4 229.875 346.6 229.675 319.5 219.075C292.4 208.475 271.2 188.875 259.8 163.675C248.4 138.575 248.1 110.975 259 85.975C269.9 60.975 290.7 41.475 317.6 31.275C337.6 23.675 359.3 21.775 380.4 25.775C387.9 27.375 395.3 29.675 402.5 32.675L395 42.175C394.5 42.875 394.3 43.775 394.7 44.575C395.1 45.375 395.9 45.975 396.8 46.075L465.2 51.475C466.3 51.575 467.3 50.975 467.7 49.975C468.1 49.075 467.8 47.975 467.1 47.275Z" fill="#00B400"/>
<path d="M388.7 142.175L381.8 149.875C379.1 152.975 375.9 155.175 372.2 156.675C368.3 158.275 363.7 159.075 358.7 159.075C353.9 159.075 349.6 158.275 345.7 156.775C341.9 155.275 338.6 153.175 335.8 150.275C332.5 146.875 330 143.175 328.4 138.775C326.7 134.375 325.8 129.475 325.8 124.175C325.8 118.875 326.7 113.875 328.4 109.475C330.1 105.175 332.5 101.375 335.8 98.075C338.8 95.075 342.1 92.875 345.9 91.375C349.7 89.875 354.1 89.075 358.8 89.075C363.4 89.075 367.7 89.775 371.5 91.275C375.3 92.775 378.6 94.975 381.8 97.975L388.8 104.775L410.6 80.175L403.9 73.975C397.9 68.475 391 64.275 383.4 61.475C375.9 58.775 367.7 57.375 358.8 57.375C349.6 57.375 341 58.875 333.3 61.775C325.4 64.775 318.4 69.275 312.3 75.175C305.8 81.475 300.8 88.875 297.4 97.275C294.1 105.575 292.4 114.575 292.4 124.075C292.4 133.575 294.1 142.575 297.4 150.875C300.8 159.175 305.8 166.675 312.3 172.975C318.3 178.875 325.4 183.375 333.3 186.375C341.1 189.375 349.7 190.875 358.8 190.875C367.9 190.875 376.4 189.375 384 186.475C391.8 183.475 398.8 178.975 405 173.075L411.6 166.675L388.7 142.175Z" fill="black"/>
</svg>
