<svg viewBox="0 0 1000 1000" xmlns="http://www.w3.org/2000/svg" xmlns:xlink="http://www.w3.org/1999/xlink" id="_x34_" xml:space="preserve" overflow="hidden"><g><path d="M838.4 629.2C835 625.9 831.1 623.5 826.7 621.8 822.2 620.1 817.4 619.3 812.1 619.3 806.7 619.3 801.7 620.1 797.3 621.8 792.8 623.5 788.9 626 785.5 629.4 781.8 633 778.9 637.2 777 642 775.1 646.8 774.1 652 774.1 657.5 774.1 663 775.1 668.3 777 673 778.9 677.8 781.8 682 785.5 685.6 788.9 688.9 792.9 691.4 797.4 693.1 801.9 694.8 806.8 695.7 812.2 695.7 819.6 695.7 826 694.1 831.6 691 837.2 687.9 841.7 683.3 845.1 677.2 846.8 674.3 848.1 671 848.9 667.4 849.7 663.7 850.1 659.7 850.1 655.4L850.1 653.3 820.4 653.3 820.4 662 840 662C838.8 669.8 835.8 675.9 830.7 680.3 825.7 684.8 819.4 687 811.8 687 807.9 687 804.3 686.3 801 685 797.7 683.7 794.8 681.8 792.3 679.2 789.5 676.3 787.4 673.1 786 669.4 784.6 665.7 783.9 661.7 783.9 657.4 783.9 653.1 784.6 649.1 786 645.5 787.4 641.8 789.5 638.6 792.3 635.7 794.8 633.1 797.7 631.1 801 629.8 804.3 628.5 807.8 627.9 811.8 627.9 815.8 627.9 819.5 628.6 822.9 629.9 826.3 631.3 829.2 633.2 831.7 635.8L838.4 629.2ZM713.2 694.2 713.2 645.7C713.2 643.8 713.1 641.7 712.8 639.6 712.6 637.4 712.2 635.1 711.6 632.5 712 633.8 712.5 635 713.2 636.3 713.8 637.5 714.9 639.1 716.2 641.1L753.5 694.2 761.3 694.2 761.3 620.6 752 620.6 752 669.6C752 671.2 752.2 673 752.5 675 752.8 677 753.3 679.1 753.9 681.3 753.1 679.4 752.3 677.6 751.4 676 750.5 674.4 749.6 672.9 748.6 671.5L712.9 620.6 703.9 620.6 703.9 694.2 713.2 694.2ZM686.6 620.6 677.1 620.6 677.1 694.2 686.6 694.2 686.6 620.6ZM653 629.2C649.6 625.9 645.7 623.5 641.3 621.8 636.8 620.1 632 619.3 626.7 619.3 621.3 619.3 616.3 620.1 611.9 621.8 607.4 623.5 603.5 626 600.1 629.4 596.4 633 593.5 637.2 591.6 642 589.7 646.8 588.7 652 588.7 657.5 588.7 663 589.7 668.3 591.6 673 593.5 677.8 596.4 682 600.1 685.6 603.5 688.9 607.5 691.4 612 693.1 616.5 694.8 621.4 695.7 626.8 695.7 634.2 695.7 640.6 694.1 646.2 691 651.8 687.9 656.3 683.3 659.7 677.2 661.4 674.3 662.7 671 663.5 667.4 664.3 663.7 664.7 659.7 664.7 655.4L664.7 653.3 635 653.3 635 662 654.6 662C653.4 669.8 650.4 675.9 645.3 680.3 640.3 684.8 634 687 626.4 687 622.5 687 618.9 686.3 615.6 685 612.3 683.7 609.4 681.8 606.9 679.2 604.1 676.3 602 673.1 600.6 669.4 599.2 665.7 598.5 661.7 598.5 657.4 598.5 653.1 599.2 649.1 600.6 645.5 602 641.8 604.1 638.6 606.9 635.7 609.4 633.1 612.3 631.1 615.6 629.8 618.9 628.5 622.4 627.9 626.4 627.9 630.4 627.9 634.1 628.6 637.4 629.9 640.8 631.3 643.7 633.2 646.2 635.8L653 629.2ZM527.8 694.2 527.8 645.7C527.8 643.8 527.7 641.7 527.4 639.6 527.2 637.4 526.8 635.1 526.2 632.5 526.6 633.8 527.1 635 527.8 636.3 528.4 637.5 529.5 639.1 530.8 641.1L568.1 694.2 575.9 694.2 575.9 620.6 566.5 620.6 566.5 669.6C566.5 671.2 566.7 673 567 675 567.3 677 567.8 679.1 568.4 681.3 567.6 679.4 566.8 677.6 565.9 676 565 674.4 564.1 672.9 563.1 671.5L527.4 620.6 518.4 620.6 518.4 694.2 527.8 694.2ZM501.9 694.2 501.9 685.6 473.2 685.6 473.2 660.8 495.2 660.8 495.2 652.3 473.2 652.3 473.2 629.3 501.9 629.3 501.9 620.6 463.7 620.6 463.7 694.2 501.9 694.2ZM452.2 694.2 452.2 685.3 426.9 685.3 426.9 620.7 417.4 620.7 417.4 694.3 452.2 694.3ZM405.9 694.2 405.9 685.3 380.6 685.3 380.6 620.7 371 620.7 371 694.3 405.9 694.3ZM303.4 694.2 310 677.2 344.6 677.2 351.1 694.2 362.3 694.2 331.3 620.5 323.3 620.5 293.3 694.2 303.4 694.2ZM325 638.9C325.2 638.4 325.5 637.6 325.9 636.3 326.3 635.1 326.7 633.6 327.2 632 327.7 633.6 328.1 635.1 328.5 636.3 328.9 637.5 329.2 638.4 329.4 638.8L341 668.4 313.3 668.4 325 638.9ZM236 694.2 236 660.6 274.6 660.6 274.6 694.2 284.1 694.2 284.1 620.6 274.6 620.6 274.6 652 236 652 236 620.7 226.5 620.7 226.5 694.3 236 694.3ZM213.8 628.6C210.4 625.5 206.6 623.1 202.3 621.5 198 619.9 193.2 619.1 188 619.1 182.6 619.1 177.6 619.9 173.2 621.6 168.7 623.3 164.8 625.8 161.4 629.2 157.7 632.8 154.8 637 152.9 641.8 151 646.6 150 651.8 150 657.3 150 662.8 151 668.1 152.9 672.8 154.8 677.6 157.7 681.8 161.4 685.4 164.8 688.7 168.8 691.2 173.3 692.9 177.8 694.6 182.7 695.5 188.1 695.5 193.4 695.5 198.3 694.7 202.7 693 207.1 691.3 211.1 688.8 214.6 685.4L208.3 678.5C205.9 681.3 202.9 683.3 199.6 684.7 196.2 686.1 192.4 686.8 188.2 686.8 184.2 686.8 180.6 686.1 177.2 684.8 173.9 683.5 170.9 681.6 168.4 679 165.6 676.1 163.5 672.9 162.1 669.2 160.7 665.5 160 661.5 160 657.2 160 652.8 160.7 648.8 162.1 645.2 163.5 641.5 165.6 638.3 168.4 635.5 171 632.9 174 630.9 177.3 629.6 180.6 628.3 184.2 627.7 188.2 627.7 192.1 627.7 195.7 628.3 198.9 629.6 202.2 630.9 205.1 632.8 207.8 635.4L213.8 628.6Z"/><path d="M617.1 351.6 566.9 305C566.2 304.4 565.3 304.2 564.4 304.4 563.6 304.7 562.9 305.4 562.8 306.2L560.2 319.1C496.3 292.9 421.7 318.7 393.2 377.4 383.6 397.2 380.1 418.6 382.9 440 383.9 451.9 386.9 463.7 392 475.1 411.4 517.9 456.3 543.9 503.2 543.9 518.1 543.9 533.1 541.3 547.6 535.7 572.3 526.3 592.2 509.9 605.1 488.2 605.6 487.4 605.3 486.4 604.6 485.9 603.8 485.4 602.8 485.6 602.3 486.4 590.5 503.2 573.6 516.2 553.3 523.9 526.4 534.2 496.6 534 469.5 523.4 442.4 512.8 421.2 493.2 409.8 468 398.4 442.9 398.1 415.3 409 390.3 419.9 365.3 440.7 345.8 467.6 335.6 487.6 328 509.3 326.1 530.4 330.1 537.9 331.7 545.3 334 552.5 337L545 346.5C544.5 347.2 544.3 348.1 544.7 348.9 545.1 349.7 545.9 350.3 546.8 350.4L615.2 355.8C616.3 355.9 617.3 355.3 617.7 354.3 618.1 353.4 617.8 352.3 617.1 351.6" fill="#00B400"/><path d="M538.7 446.5 531.8 454.2C529.1 457.3 525.9 459.5 522.2 461 518.3 462.6 513.7 463.4 508.7 463.4 503.9 463.4 499.6 462.6 495.7 461.1 491.9 459.6 488.6 457.5 485.8 454.6 482.5 451.2 480 447.5 478.4 443.1 476.7 438.7 475.8 433.8 475.8 428.5 475.8 423.2 476.7 418.2 478.4 413.8 480.1 409.5 482.5 405.7 485.8 402.4 488.8 399.4 492.1 397.2 495.9 395.7 499.7 394.2 504.1 393.4 508.8 393.4 513.4 393.4 517.7 394.1 521.5 395.6 525.3 397.1 528.6 399.3 531.8 402.3L538.8 409.1 560.6 384.5 553.9 378.3C547.9 372.8 541 368.6 533.4 365.8 525.9 363.1 517.7 361.7 508.8 361.7 499.6 361.7 491 363.2 483.3 366.1 475.4 369.1 468.4 373.6 462.3 379.5 455.8 385.8 450.8 393.2 447.4 401.6 444.1 409.9 442.4 418.9 442.4 428.4 442.4 437.9 444.1 446.9 447.4 455.2 450.8 463.5 455.8 471 462.3 477.3 468.3 483.2 475.4 487.7 483.3 490.7 491.1 493.7 499.7 495.2 508.8 495.2 517.9 495.2 526.4 493.7 534 490.8 541.8 487.8 548.8 483.3 555 477.4L561.6 471 538.7 446.5Z"/></g></svg>