<svg width="1440" height="900" viewBox="0 0 1440 900" fill="none" xmlns="http://www.w3.org/2000/svg">
<g clip-path="url(#clip0_112_192)">
<rect width="1440" height="900" fill="white"/>
<rect x="1256.35" y="-296" width="1140.11" height="1813.73" transform="rotate(38.7538 1256.35 -296)" fill="url(#paint0_linear_112_192)"/>
<path d="M272.055 126.674C271.178 125.846 269.704 125.846 268.826 126.674C267.949 127.501 267.949 128.892 268.826 129.719L278.514 138.855C278.97 139.285 279.532 139.484 280.128 139.484C280.725 139.484 281.287 139.285 281.743 138.855C282.62 138.027 282.62 136.637 281.743 135.809L272.055 126.674Z" fill="#00B400"/>
<path d="M311.683 126.674C310.806 125.846 309.331 125.846 308.454 126.674L298.766 135.809C297.889 136.637 297.889 138.027 298.766 138.855C299.223 139.285 299.784 139.484 300.381 139.484C300.978 139.484 301.539 139.285 301.995 138.855L311.683 129.719C312.561 128.892 312.561 127.534 311.683 126.674Z" fill="#00B400"/>
<path d="M290.237 122.271C288.973 122.271 287.956 123.231 287.956 124.423V137.365C287.956 138.557 288.973 139.517 290.237 139.517C291.501 139.517 292.519 138.557 292.519 137.365V124.423C292.519 123.231 291.501 122.271 290.237 122.271Z" fill="#00B400"/>
<path d="M116.773 161.958C117.053 155.04 119.686 151.532 124.565 151.532C127.057 151.532 129.023 152.525 130.356 154.478C131.69 156.431 132.392 159.343 132.392 163.15V164.904C132.357 168.611 131.69 171.491 130.356 173.444C129.023 175.43 127.092 176.423 124.635 176.423C122.038 176.423 120.072 175.397 118.738 173.411C117.44 171.392 116.773 168.479 116.773 164.772V161.958ZM134.358 145.706C131.48 144.051 128.18 143.224 124.565 143.224C120.879 143.224 117.545 144.051 114.667 145.706C111.753 147.361 109.507 149.744 107.963 152.79C106.453 155.802 105.646 159.277 105.646 163.183V165.334C105.716 169.108 106.559 172.484 108.138 175.397C109.718 178.343 111.964 180.66 114.842 182.282C117.685 183.87 120.985 184.698 124.635 184.698C128.285 184.698 131.62 183.87 134.463 182.215C137.341 180.56 139.588 178.177 141.167 175.132C142.712 172.12 143.484 168.644 143.484 164.739V162.984C143.449 159.145 142.676 155.702 141.097 152.723C139.517 149.711 137.236 147.361 134.358 145.706Z" fill="black"/>
<path d="M101.75 143.753H67.8082C67.1764 143.753 66.6499 144.25 66.6499 144.846V151.962C66.6499 152.558 67.1764 153.055 67.8082 153.055H78.619V183.142C78.619 183.738 79.1455 184.235 79.7773 184.235H89.5702C90.202 184.235 90.7285 183.738 90.7285 183.142V153.055H101.75C102.382 153.055 102.908 152.558 102.908 151.962V144.846C102.873 144.25 102.382 143.753 101.75 143.753Z" fill="black"/>
<path d="M201.925 154.676C202.873 153.253 204.242 152.591 206.313 152.591C208.419 152.591 209.963 153.021 210.911 153.849C211.859 154.643 212.35 156.1 212.42 158.119C212.455 158.714 212.947 159.178 213.578 159.178H223.336C223.652 159.178 223.968 159.045 224.179 158.814C224.389 158.582 224.495 158.284 224.459 157.986C224.038 153.418 222.178 149.777 218.949 147.163C215.755 144.548 211.508 143.224 206.313 143.224C202.698 143.224 199.433 144.051 196.66 145.706C193.887 147.361 191.711 149.711 190.237 152.69C188.798 155.636 188.061 159.112 188.061 162.984V164.871C188.061 171.094 189.71 175.993 192.94 179.468C196.204 182.977 200.767 184.764 206.418 184.764C209.823 184.764 212.876 184.168 215.544 182.977C218.247 181.785 220.388 180.031 221.897 177.846C223.406 175.662 224.214 173.08 224.354 170.233C224.354 169.935 224.249 169.637 224.038 169.439C223.828 169.24 223.512 169.108 223.231 169.108H213.508C212.877 169.108 212.385 169.571 212.35 170.134C212.28 171.988 211.788 173.345 210.841 174.139C209.858 174.967 208.384 175.364 206.453 175.364C204.172 175.364 202.697 174.702 201.82 173.278C200.837 171.69 200.346 168.942 200.346 165.07V162.355C200.381 158.781 200.907 156.199 201.925 154.676Z" fill="black"/>
<path d="M264.684 143.753H254.961C254.33 143.753 253.803 144.25 253.803 144.846V158.979H241.659V144.846C241.659 144.25 241.132 143.753 240.5 143.753H230.707C230.076 143.753 229.549 144.25 229.549 144.846V183.142C229.549 183.738 230.076 184.235 230.707 184.235H240.5C241.132 184.235 241.659 183.738 241.659 183.142V168.214H253.803V183.142C253.803 183.738 254.33 184.235 254.961 184.235H264.684C265.316 184.235 265.842 183.738 265.842 183.142V144.846C265.807 144.25 265.281 143.753 264.684 143.753Z" fill="black"/>
<path d="M160.051 151.929H166.229C168.054 151.929 169.458 152.393 170.406 153.352C171.353 154.279 171.845 155.603 171.845 157.225C171.845 158.88 171.353 160.171 170.441 161.098C169.493 162.025 168.089 162.488 166.229 162.488H160.051V151.929ZM176.057 167.751C178.163 166.659 179.777 165.235 180.865 163.58C182.129 161.661 182.761 159.244 182.761 156.398C182.761 152.393 181.252 149.215 178.268 146.997C175.355 144.846 171.318 143.753 166.264 143.753H150.293C149.662 143.753 149.135 144.25 149.135 144.846V183.142C149.135 183.738 149.662 184.235 150.293 184.235H160.086C160.718 184.235 161.245 183.738 161.245 183.142V170.664H164.684L171.529 183.606C171.739 183.97 172.126 184.202 172.547 184.202H183.042C183.673 184.202 184.2 183.705 184.2 183.109V182.712C184.2 182.613 184.165 182.547 184.13 182.48L176.057 167.751Z" fill="black"/>
<path d="M309.296 144.349C309.121 143.985 308.7 143.753 308.279 143.753H272.196C271.774 143.753 271.353 143.985 271.178 144.349C271.002 144.713 271.037 145.144 271.283 145.475L284.095 161.33V183.109C284.095 183.705 284.621 184.202 285.253 184.202H295.186C295.818 184.202 296.345 183.705 296.345 183.109V161.33L309.191 145.475C309.437 145.144 309.507 144.713 309.296 144.349Z" fill="black"/>
<path d="M290.237 166.096C289.149 166.096 288.236 165.268 288.236 164.209V162.62C288.236 161.594 289.149 160.733 290.237 160.733C291.325 160.733 292.238 161.561 292.238 162.62V164.209C292.238 165.268 291.36 166.096 290.237 166.096Z" fill="#00B400"/>
<path d="M223.266 190.887H222.985L224.951 195.521L224.635 196.283C224.495 196.614 224.354 196.845 224.179 196.978C224.003 197.11 223.793 197.176 223.547 197.176C223.407 197.176 223.301 197.176 223.231 197.143V197.375C223.301 197.408 223.407 197.408 223.582 197.408C224.144 197.408 224.53 197.143 224.776 196.581L224.881 196.316L227.092 190.854H226.811L225.091 195.058L225.056 195.157L223.266 190.887ZM221.617 194.826C221.336 195.224 220.95 195.389 220.423 195.389C220.002 195.389 219.651 195.29 219.37 195.124C219.089 194.959 218.879 194.694 218.738 194.363V192.245C218.879 191.847 219.089 191.549 219.37 191.351C219.651 191.152 220.002 191.053 220.423 191.053C220.915 191.053 221.336 191.252 221.617 191.616C221.897 191.98 222.038 192.509 222.038 193.171C222.038 193.9 221.897 194.462 221.617 194.826ZM222.283 193.204C222.283 192.443 222.108 191.88 221.792 191.45C221.476 191.02 221.02 190.821 220.423 190.821C220.037 190.821 219.721 190.887 219.44 191.053C219.16 191.218 218.914 191.45 218.738 191.748V188.935H218.493V195.555H218.738V194.826C218.914 195.091 219.124 195.29 219.44 195.422C219.721 195.555 220.072 195.654 220.423 195.654C220.985 195.654 221.441 195.455 221.792 195.025C222.143 194.595 222.283 194.032 222.283 193.304V193.204Z" fill="black"/>
<path d="M295.221 189.729C294.905 189.431 294.519 189.2 294.098 189.067C293.677 188.902 293.221 188.835 292.694 188.835C292.168 188.835 291.711 188.902 291.29 189.067C290.869 189.233 290.483 189.431 290.167 189.762C289.816 190.093 289.535 190.457 289.36 190.888C289.184 191.318 289.079 191.781 289.079 192.278C289.079 192.774 289.184 193.238 289.36 193.668C289.535 194.098 289.816 194.462 290.167 194.793C290.483 195.091 290.869 195.323 291.29 195.455C291.711 195.621 292.203 195.687 292.694 195.687C293.396 195.687 294.028 195.555 294.554 195.257C295.081 194.959 295.502 194.562 295.853 194.032C296.029 193.767 296.134 193.469 296.204 193.138C296.274 192.807 296.309 192.443 296.309 192.046V191.848H293.501V192.642H295.362C295.256 193.337 294.941 193.9 294.484 194.297C293.993 194.694 293.396 194.893 292.694 194.893C292.308 194.893 291.992 194.827 291.676 194.727C291.36 194.595 291.08 194.429 290.834 194.198C290.553 193.933 290.378 193.635 290.237 193.304C290.097 192.973 290.027 192.609 290.027 192.245C290.027 191.848 290.097 191.517 290.237 191.186C290.378 190.855 290.588 190.557 290.834 190.292C291.08 190.06 291.36 189.895 291.676 189.762C291.992 189.63 292.343 189.597 292.694 189.597C293.08 189.597 293.431 189.663 293.747 189.795C294.063 189.928 294.344 190.093 294.59 190.325L295.221 189.729ZM283.287 195.555V191.186C283.287 191.02 283.287 190.821 283.252 190.623C283.217 190.424 283.182 190.226 283.147 189.994C283.182 190.093 283.252 190.226 283.287 190.325C283.358 190.424 283.428 190.59 283.568 190.755L287.113 195.522H287.85V188.902H286.973V193.304C286.973 193.436 286.973 193.602 287.008 193.8C287.043 193.966 287.078 194.165 287.148 194.363C287.078 194.198 287.008 194.032 286.903 193.9C286.832 193.767 286.727 193.602 286.622 193.503L283.217 188.935H282.375V195.555H283.287ZM280.76 188.968H279.848V195.588H280.76V188.968ZM277.566 189.729C277.25 189.431 276.864 189.2 276.443 189.067C276.022 188.902 275.565 188.835 275.039 188.835C274.512 188.835 274.056 188.902 273.635 189.067C273.214 189.233 272.828 189.431 272.512 189.762C272.161 190.093 271.88 190.457 271.704 190.888C271.529 191.318 271.424 191.781 271.424 192.278C271.424 192.774 271.529 193.238 271.704 193.668C271.88 194.098 272.161 194.462 272.512 194.793C272.828 195.091 273.214 195.323 273.635 195.455C274.056 195.621 274.547 195.687 275.039 195.687C275.741 195.687 276.373 195.555 276.899 195.257C277.426 194.959 277.847 194.562 278.198 194.032C278.373 193.767 278.479 193.469 278.549 193.138C278.619 192.807 278.654 192.443 278.654 192.046V191.848H275.846V192.642H277.706C277.601 193.337 277.285 193.9 276.829 194.297C276.338 194.694 275.741 194.893 275.039 194.893C274.653 194.893 274.337 194.827 274.021 194.727C273.705 194.595 273.424 194.429 273.179 194.198C272.898 193.933 272.722 193.635 272.582 193.304C272.441 192.973 272.371 192.609 272.371 192.245C272.371 191.848 272.441 191.517 272.582 191.186C272.722 190.855 272.933 190.557 273.179 190.292C273.424 190.06 273.705 189.895 274.021 189.762C274.337 189.63 274.688 189.597 275.039 189.597C275.425 189.597 275.776 189.663 276.092 189.795C276.408 189.928 276.689 190.093 276.934 190.325L277.566 189.729ZM265.632 195.555V191.186C265.632 191.02 265.632 190.821 265.597 190.623C265.562 190.424 265.527 190.226 265.492 189.994C265.527 190.093 265.597 190.226 265.632 190.325C265.702 190.424 265.772 190.59 265.913 190.755L269.458 195.522H270.195V188.902H269.318V193.304C269.318 193.436 269.318 193.602 269.353 193.8C269.388 193.966 269.423 194.165 269.493 194.363C269.423 194.198 269.353 194.032 269.247 193.9C269.177 193.767 269.072 193.602 268.967 193.503L265.562 188.935H264.719V195.555H265.632ZM263.175 195.555V194.793H260.437V192.576H262.543V191.814H260.437V189.762H263.175V188.968H259.525V195.588H263.175V195.555ZM258.437 195.555V194.76H256.015V188.968H255.137V195.588H258.437V195.555ZM254.049 195.555V194.76H251.627V188.968H250.715V195.588H254.049V195.555ZM244.291 195.555L244.923 194.032H248.222L248.854 195.555H249.907L246.959 188.935H246.187L243.344 195.555H244.291ZM246.327 190.59C246.327 190.557 246.362 190.457 246.397 190.358C246.432 190.259 246.467 190.126 246.538 189.961C246.573 190.093 246.643 190.226 246.678 190.358C246.713 190.457 246.748 190.557 246.748 190.59L247.836 193.238H245.204L246.327 190.59ZM237.868 195.555V192.543H241.553V195.555H242.466V188.935H241.553V191.748H237.868V188.935H236.955V195.555H237.868ZM235.762 189.663C235.446 189.365 235.06 189.166 234.674 189.034C234.253 188.902 233.796 188.835 233.305 188.835C232.778 188.835 232.322 188.902 231.901 189.067C231.48 189.233 231.094 189.431 230.778 189.762C230.427 190.093 230.146 190.457 229.97 190.888C229.795 191.318 229.69 191.781 229.69 192.278C229.69 192.774 229.795 193.238 229.97 193.668C230.146 194.098 230.427 194.462 230.778 194.793C231.094 195.091 231.48 195.323 231.901 195.455C232.322 195.621 232.814 195.687 233.305 195.687C233.796 195.687 234.288 195.621 234.709 195.455C235.13 195.29 235.516 195.091 235.832 194.76L235.235 194.131C234.99 194.363 234.709 194.562 234.393 194.694C234.077 194.827 233.726 194.893 233.305 194.893C232.919 194.893 232.568 194.827 232.252 194.727C231.936 194.595 231.655 194.429 231.41 194.198C231.129 193.933 230.953 193.635 230.813 193.304C230.673 192.973 230.602 192.609 230.602 192.245C230.602 191.848 230.673 191.483 230.813 191.152C230.953 190.821 231.164 190.524 231.41 190.292C231.655 190.06 231.936 189.895 232.252 189.762C232.568 189.63 232.919 189.597 233.305 189.597C233.691 189.597 234.007 189.663 234.323 189.762C234.639 189.862 234.92 190.06 235.165 190.292L235.762 189.663Z" fill="black"/>
</g>
<defs>
<linearGradient id="paint0_linear_112_192" x1="1612.21" y1="-170.179" x2="1648.13" y2="836.607" gradientUnits="userSpaceOnUse">
<stop offset="0.14" stop-color="#55A069"/>
<stop offset="0.288808" stop-color="#2E9845"/>
<stop offset="0.46776" stop-color="#008F19"/>
<stop offset="0.945"/>
</linearGradient>
<clipPath id="clip0_112_192">
<rect width="1440" height="900" fill="white"/>
</clipPath>
</defs>
</svg>
