<?xml version="1.0" encoding="UTF-8" standalone="no"?>
<!-- Created with Inkscape (http://www.inkscape.org/) -->

<svg
   version="1.1"
   id="svg2"
   width="629.00287"
   height="377.42068"
   viewBox="0 0 629.00287 377.42068"
   sodipodiDocname="20220817_Challenging_Logo Black.ai"
   xmlnsInkscape="http://www.inkscape.org/namespaces/inkscape"
   xmlnsSodipodi="http://sodipodi.sourceforge.net/DTD/sodipodi-0.dtd"
   xmlns="http://www.w3.org/2000/svg"
   xmlnsSvg="http://www.w3.org/2000/svg">
  <defs
     id="defs6">
    <clipPath
       clipPathUnits="userSpaceOnUse"
       id="clipPath18">
      <path
         d="M 0,0 H 502.838 V 502.838 H 0 Z"
         id="path16" />
    </clipPath>
  </defs>
  <sodipodiNamedview
     id="namedview4"
     pagecolor="#ffffff"
     bordercolor="#000000"
     borderopacity="0.25"
     inkscapeShowpageshadow="2"
     inkscapePageopacity="0.0"
     inkscapePagecheckerboard="0"
     inkscapeDeskcolor="#d1d1d1" />
  <g
     id="g8"
     inkscapeGroupmode="layer"
     inkscapeLabel="20220817_Challenging_Logo Black"
     transform="matrix(1.3333333,0,0,-1.3333333,-21.919293,561.05027)">
    <g
       id="g10" />
    <g
       id="g12">
      <g
         id="g14"
         clip-path="url(#clipPath18)">
        <path
           d="m 0,0.648 h 502.189 v 502.19 H 0 Z"
           style="fill:#000000;fill-opacity:1;fill-rule:nonzero;stroke:none"
           id="path20" />
        <path
           d="m 0,502.4403 v -53.429 h 502.838 v 1.881 l -2.515,51.548 z"
           style="fill:#ffffff;fill-opacity:1;fill-rule:nonzero;stroke:none"
           id="path22" />
        <text
           xmlSpace="preserve"
           transform="matrix(0.94943221,0,0,-1,151.7261,469.2197)"
           style="font-variant:normal;font-weight:normal;font-size:13.5086px;font-family:Karla;-inkscape-font-specification:Karla-Regular;writing-mode:lr-tb;fill:#000000;fill-opacity:1;fill-rule:nonzero;stroke:none"
           id="text26"><tspan
             x="0 8.3888407 13.265445 20.695175 28.84086 36.837952 40.863514 49.009201 56.628052 59.82959 63.611996 71.609085 78.539001 86.684685 91.763916 95.789482 100.86871 107.15022 110.35175 118.63252 126.77821 134.20795 142.35362 149.97247 156.90239 160.6848 164.46721 168.49277 176.63846"
             y="0"
             sodipodiRole="line"
             id="tspan24">Branding Identity Changelling</tspan></text>
        <path
           d="M 0,53.8272 V 0.3962 h 502.838 v 1.882 l -2.515,51.549 z"
           style="fill:#ffffff;fill-opacity:1;fill-rule:nonzero;stroke:none"
           id="path28" />
        <path
           d="m 250.4211,309.7982 c -12.65,0 -22.897,10.247 -22.897,22.897 0,12.643 10.247,22.889 22.897,22.889 7.577,0 14.289,-3.675 18.448,-9.349 h 13.486 c -5.135,12.533 -17.457,21.36 -31.84,21.36 -19.003,0 -34.408,-15.405 -34.408,-34.408 0,-19.003 15.405,-34.408 34.408,-34.408 12.345,0 23.177,6.508 29.249,16.271 h -14.757 c -3.965,-3.285 -9.045,-5.252 -14.586,-5.252"
           style="fill:#ffffff;fill-opacity:1;fill-rule:nonzero;stroke:none"
           id="path30" />
        <path
           d="m 298.8781,317.2547 -22.99,-10.416 c -0.201,-0.091 -0.224,-0.368 -0.04,-0.491 l 4.64,-3.108 c -0.051,-0.052 -0.105,-0.106 -0.155,-0.156 -8.395,-8.271 -19.51,-12.778 -31.297,-12.692 -11.788,0.087 -22.834,4.761 -31.104,13.155 -6.267,6.36 -10.368,14.28 -11.952,22.868 1.133,-9.963 5.481,-19.636 13.064,-27.329 17.995,-18.268 47.378,-18.501 65.665,-0.537 l 3.102,-5.181 c 0.116,-0.195 0.402,-0.179 0.498,0.026 l 10.941,23.485 c 0.11,0.237 -0.134,0.484 -0.372,0.376"
           style="fill:#ffffff;fill-opacity:1;fill-rule:nonzero;stroke:none"
           id="path32" />
        <path
           d="m 250.2414,291.4178 c -10.904,0.498 -20.967,5.212 -28.326,13.277 -7.361,8.065 -11.141,18.513 -10.642,29.418 0.498,10.908 5.211,20.968 13.276,28.329 8.064,7.36 18.512,11.142 29.419,10.643 8.261,-0.376 16.032,-3.174 22.515,-8.011 -7.041,6.055 -16.085,9.887 -26.082,10.344 -23.749,1.083 -43.878,-17.29 -44.958,-41.037 -1.084,-23.749 17.289,-43.877 41.035,-44.961 9.997,-0.457 19.35,2.535 26.917,7.926 -6.897,-4.226 -14.892,-6.305 -23.154,-5.928"
           style="fill:#ffffff;fill-opacity:1;fill-rule:nonzero;stroke:none"
           id="path34" />
        <path
           d="m 85.1379,207.7527 c 1.896,0.971 3.526,2.393 4.746,4.141 l 4.694,-3.286 c -1.821,-2.344 -4.168,-4.229 -6.851,-5.501 -2.78,-1.325 -5.825,-2 -8.904,-1.972 -2.448,0.007 -4.87,0.506 -7.121,1.467 -2.278,0.936 -4.364,2.289 -6.149,3.986 -1.779,1.686 -3.211,3.703 -4.215,5.939 -1.005,2.23 -1.52,4.649 -1.51,7.094 -0.008,2.454 0.506,4.881 1.51,7.12 1,2.245 2.432,4.271 4.215,5.962 1.782,1.697 3.868,3.043 6.149,3.966 2.257,0.94 4.676,1.429 7.121,1.437 3.079,0.027 6.124,-0.647 8.904,-1.97 2.682,-1.274 5.029,-3.159 6.851,-5.505 l -4.694,-3.281 c -1.22,1.748 -2.849,3.17 -4.746,4.14 -1.95,1.012 -4.118,1.533 -6.315,1.516 -1.649,-0.015 -3.276,-0.377 -4.775,-1.063 -1.577,-0.69 -3.013,-1.667 -4.235,-2.878 -1.25,-1.236 -2.249,-2.701 -2.943,-4.316 -1.4,-3.274 -1.4,-6.979 0,-10.254 0.693,-1.617 1.692,-3.085 2.943,-4.321 1.222,-1.211 2.658,-2.187 4.235,-2.876 1.498,-0.688 3.125,-1.05 4.775,-1.065 2.197,-0.015 4.365,0.506 6.315,1.52"
           style="fill:#ffffff;fill-opacity:1;fill-rule:nonzero;stroke:none"
           id="path36" />
        <path
           d="m 124.2541,238.1561 h 5.773 v -36.97 h -5.773 v 11.465 h -15.376 v -11.464 h -5.773 v 36.969 h 5.773 v -20.755 h 15.376 z"
           style="fill:#ffffff;fill-opacity:1;fill-rule:nonzero;stroke:none"
           id="path38" />
        <path
           d="m 152.1662,225.784 -6.315,-16.867 14.137,0.099 z m -9.335,-24.598 h -5.879 l 15.053,37.022 17.211,-37.022 h -5.882 l -1.189,3.182 -18.076,-0.101 z"
           style="fill:#ffffff;fill-opacity:1;fill-rule:nonzero;stroke:none"
           id="path40" />
        <path
           d="m 182.7502,238.1561 v -31.77 h 16.133 v -5.301 h -21.905 v 37.071 z"
           style="fill:#ffffff;fill-opacity:1;fill-rule:nonzero;stroke:none"
           id="path42" />
        <path
           d="m 212.5812,238.1561 v -31.77 h 16.132 v -5.301 h -21.905 v 37.071 z"
           style="fill:#ffffff;fill-opacity:1;fill-rule:nonzero;stroke:none"
           id="path44" />
        <path
           d="m 242.343,215.3299 v -8.79 h 17.588 v -5.305 h -23.31 v 36.87 h 22.933 v -5.148 h -17.211 v -12.582 h 15.484 v -5.049 z"
           style="fill:#ffffff;fill-opacity:1;fill-rule:nonzero;stroke:none"
           id="path46" />
        <path
           d="m 273.1848,223.8133 v -22.778 h -5.45 v 37.729 l 25.575,-28.638 v 27.979 h 5.45 v -37.07 h -5.343 z"
           style="fill:#ffffff;fill-opacity:1;fill-rule:nonzero;stroke:none"
           id="path48" />
        <path
           d="m 344.7971,218.6111 c -0.009,-2.908 -0.752,-5.767 -2.16,-8.311 -1.108,-1.752 -2.492,-3.312 -4.101,-4.62 -1.77,-1.452 -3.777,-2.588 -5.933,-3.358 -2.234,-0.798 -4.589,-1.199 -6.96,-1.188 -2.597,-0.012 -5.172,0.477 -7.583,1.442 -2.332,0.922 -4.466,2.284 -6.284,4.013 -1.779,1.684 -3.208,3.702 -4.209,5.938 -1.005,2.23 -1.52,4.649 -1.51,7.095 -0.009,2.454 0.506,4.881 1.51,7.12 0.997,2.245 2.427,4.27 4.209,5.961 1.829,1.703 3.96,3.049 6.284,3.967 2.412,0.96 4.986,1.447 7.583,1.435 7.724,0.106 14.786,-4.348 18.021,-11.363 h -6.638 c -1.206,1.901 -2.866,3.473 -4.83,4.574 -2,1.126 -4.259,1.709 -6.554,1.69 -1.806,0.005 -3.595,-0.347 -5.263,-1.037 -1.63,-0.662 -3.107,-1.65 -4.341,-2.905 -1.251,-1.233 -2.25,-2.699 -2.939,-4.314 -1.405,-3.275 -1.405,-6.981 0,-10.255 0.689,-1.617 1.687,-3.085 2.939,-4.321 1.234,-1.253 2.711,-2.241 4.341,-2.902 1.668,-0.69 3.457,-1.043 5.263,-1.038 1.564,-0.003 3.117,0.272 4.586,0.81 1.464,0.533 2.83,1.301 4.046,2.274 1.075,0.852 2.02,1.855 2.806,2.979 0.704,1.113 1.197,2.346 1.456,3.638 h -19.746 v 4.748 h 25.899 c 0.071,-1.013 0.107,-1.704 0.108,-2.072"
           style="fill:#ffffff;fill-opacity:1;fill-rule:nonzero;stroke:none"
           id="path50" />
        <path
           d="m 352.544,201.135 h 5.773 v 37.021 h -5.773 z"
           style="fill:#ffffff;fill-opacity:1;fill-rule:nonzero;stroke:none"
           id="path52" />
        <path
           d="m 370.4963,223.8133 v -22.778 h -5.45 v 37.729 l 25.575,-28.638 v 27.979 h 5.45 v -37.07 h -5.343 z"
           style="fill:#ffffff;fill-opacity:1;fill-rule:nonzero;stroke:none"
           id="path54" />
        <path
           d="m 443.009,218.6111 c 0.01,-0.897 -0.062,-1.793 -0.214,-2.677 -0.267,-1.988 -0.928,-3.903 -1.943,-5.634 -1.107,-1.752 -2.492,-3.312 -4.101,-4.62 -1.77,-1.452 -3.778,-2.588 -5.935,-3.358 -2.234,-0.798 -4.589,-1.199 -6.96,-1.188 -2.597,-0.012 -5.17,0.477 -7.58,1.442 -2.334,0.921 -4.468,2.283 -6.287,4.013 -1.777,1.686 -3.207,3.704 -4.209,5.938 -1.005,2.23 -1.52,4.649 -1.51,7.095 -0.008,2.453 0.507,4.881 1.51,7.12 0.999,2.244 2.429,4.269 4.209,5.961 1.83,1.704 3.961,3.049 6.287,3.967 2.411,0.961 4.984,1.448 7.58,1.435 5.782,0.071 11.3,-2.413 15.082,-6.789 1.19,-1.378 2.179,-2.918 2.938,-4.574 h -6.636 c -1.205,1.902 -2.865,3.474 -4.831,4.574 -2,1.127 -4.259,1.709 -6.555,1.69 -1.804,0.005 -3.592,-0.346 -5.259,-1.037 -1.63,-0.662 -3.107,-1.65 -4.341,-2.905 -1.252,-1.233 -2.252,-2.698 -2.942,-4.314 -1.401,-3.275 -1.401,-6.98 0,-10.255 0.69,-1.618 1.689,-3.086 2.942,-4.321 1.234,-1.253 2.711,-2.241 4.341,-2.902 1.667,-0.69 3.454,-1.044 5.259,-1.038 1.564,-0.003 3.117,0.272 4.587,0.81 1.464,0.532 2.831,1.3 4.046,2.274 1.077,0.851 2.024,1.855 2.81,2.979 0.703,1.114 1.196,2.346 1.456,3.638 h -19.75 v 4.748 h 25.898 c 0.072,-1.013 0.108,-1.704 0.108,-2.072"
           style="fill:#ffffff;fill-opacity:1;fill-rule:nonzero;stroke:none"
           id="path56" />
      </g>
    </g>
  </g>
</svg>
