<?xml version="1.0" encoding="utf-8"?>
<!-- Generator: Adobe Illustrator 28.3.0, SVG Export Plug-In . SVG Version: 6.00 Build 0)  -->
<svg version="1.1" id="_x31_" xmlns="http://www.w3.org/2000/svg" xmlns:xlink="http://www.w3.org/1999/xlink" x="0px" y="0px"
	 viewBox="0 0 1000 1000" style="enable-background:new 0 0 1000 1000;" xml:space="preserve">
<style type="text/css">
	.st0{fill:#00B400;}
</style>
<g>
	<path class="st0" d="M306,205.7c-9.5-9.5-24.9-9.5-34.4,0c-9.5,9.5-9.5,24.9,0,34.4L375,343.5c4.8,4.8,11,7.1,17.2,7.1
		c6.2,0,12.5-2.4,17.2-7.1c9.5-9.5,9.5-24.9,0-34.4L306,205.7z"/>
	<path class="st0" d="M728.4,205.7c-9.5-9.5-24.9-9.5-34.4,0L590.6,309.1c-9.5,9.5-9.5,24.9,0,34.4c4.8,4.8,11,7.1,17.2,7.1
		c6.2,0,12.5-2.4,17.2-7.1l103.4-103.4C737.9,230.7,737.9,215.2,728.4,205.7"/>
	<path class="st0" d="M500,155.8c-13.4,0-24.4,10.9-24.4,24.4v146.2c0,13.5,10.9,24.4,24.4,24.4c13.4,0,24.4-10.9,24.4-24.4V180.1
		C524.3,166.7,513.4,155.8,500,155.8"/>
	<path d="M703.1,405.4c-2-4.1-6.3-6.8-10.9-6.8H307.8c-4.6,0-8.8,2.6-10.9,6.8c-2,4.1-1.5,9.1,1.2,12.8l136.6,179.1v246.3
		c0,6.7,5.5,12.2,12.2,12.2h105.8c6.7,0,12.2-5.5,12.2-12.2V597.3l136.9-179.1C704.7,414.5,705.1,409.6,703.1,405.4"/>
	<path class="st0" d="M500,651.1c-11.8,0-21.3-9.5-21.3-21.3V612c0-11.8,9.5-21.3,21.3-21.3c11.8,0,21.3,9.5,21.3,21.3v17.8
		C521.3,641.6,511.7,651.1,500,651.1z"/>
</g>
</svg>
