<?xml version="1.0" encoding="utf-8"?>
<!-- Generator: Adobe Illustrator 28.3.0, SVG Export Plug-In . SVG Version: 6.00 Build 0)  -->
<svg version="1.1" id="_x33_" xmlns="http://www.w3.org/2000/svg" xmlns:xlink="http://www.w3.org/1999/xlink" x="0px" y="0px"
	 viewBox="0 0 1000 1000" style="enable-background:new 0 0 1000 1000;" xml:space="preserve">
<style type="text/css">
	.st0{fill:#00B400;}
</style>
<path class="st0" d="M735.2,382.7c-2.5-2.5-6.7-2.5-9.2,0c-2.5,2.5-2.5,6.7,0,9.2l27.6,27.6c1.3,1.3,2.9,1.9,4.6,1.9
	c1.7,0,3.3-0.6,4.6-1.9c2.5-2.5,2.5-6.7,0-9.2L735.2,382.7z"/>
<path class="st0" d="M848.1,382.7c-2.5-2.5-6.7-2.5-9.2,0l-27.6,27.6c-2.5,2.5-2.5,6.7,0,9.2c1.3,1.3,2.9,1.9,4.6,1.9
	c1.7,0,3.3-0.6,4.6-1.9l27.6-27.6C850.6,389.4,850.6,385.3,848.1,382.7"/>
<path class="st0" d="M787,369.4c-3.6,0-6.5,2.9-6.5,6.5V415c0,3.6,2.9,6.5,6.5,6.5c3.6,0,6.5-2.9,6.5-6.5v-39.1
	C793.5,372.3,790.6,369.4,787,369.4"/>
<path d="M292.8,489.3c0.8-20.9,8.3-31.5,22.2-31.5c7.1,0,12.7,3,16.5,8.9c3.8,5.9,5.8,14.7,5.8,26.2v5.3c-0.1,11.2-2,19.9-5.8,25.8
	c-3.8,6-9.3,9-16.3,9c-7.4,0-13-3.1-16.8-9.1c-3.7-6.1-5.6-14.9-5.6-26.1L292.8,489.3z M342.9,440.2c-8.2-5-17.6-7.5-27.9-7.5
	c-10.5,0-20,2.5-28.2,7.5c-8.3,5-14.7,12.2-19.1,21.4c-4.3,9.1-6.6,19.6-6.6,31.4v6.5c0.2,11.4,2.6,21.6,7.1,30.4
	c4.5,8.9,10.9,15.9,19.1,20.8c8.1,4.8,17.5,7.3,27.9,7.3c10.4,0,19.9-2.5,28-7.5c8.2-5,14.6-12.2,19.1-21.4
	c4.4-9.1,6.6-19.6,6.6-31.4v-5.3v0c-0.1-11.6-2.3-22-6.8-31C357.6,452.3,351.1,445.2,342.9,440.2"/>
<path d="M250,434.3h-96.7c-1.8,0-3.3,1.5-3.3,3.3v21.5c0,1.8,1.5,3.3,3.3,3.3h30.8v90.9c0,1.8,1.5,3.3,3.3,3.3h27.9
	c1.8,0,3.3-1.5,3.3-3.3v-90.9H250c1.8,0,3.3-1.5,3.3-3.3v-21.5C253.2,435.8,251.8,434.3,250,434.3"/>
<path d="M566.7,514L566.7,514L566.7,514L566.7,514z M535.4,467.3c2.7-4.3,6.6-6.3,12.5-6.3c6,0,10.4,1.3,13.1,3.8
	c2.7,2.4,4.1,6.8,4.3,12.9c0.1,1.8,1.5,3.2,3.3,3.2h27.8c0.9,0,1.8-0.4,2.4-1.1c0.6-0.7,0.9-1.6,0.8-2.5
	c-1.2-13.8-6.5-24.8-15.7-32.7c-9.1-7.9-21.2-11.9-36-11.9c-10.3,0-19.6,2.5-27.5,7.5c-7.9,5-14.1,12.1-18.3,21.1
	c-4.1,8.9-6.2,19.4-6.2,31.1v5.7c0,18.8,4.7,33.6,13.9,44.1c9.3,10.6,22.3,16,38.4,16c9.7,0,18.4-1.8,26-5.4
	c7.7-3.6,13.8-8.9,18.1-15.5c4.3-6.6,6.6-14.4,7-23c0-0.9-0.3-1.8-0.9-2.4c-0.6-0.6-1.5-1-2.3-1h-27.7c-1.8,0-3.2,1.4-3.3,3.1v0
	c-0.2,5.6-1.6,9.7-4.3,12.1c-2.8,2.5-7,3.7-12.5,3.7c-6.5,0-10.7-2-13.2-6.3c-2.8-4.8-4.2-13.1-4.2-24.8v-8.2
	C531,479.7,532.5,471.9,535.4,467.3"/>
<path d="M714.2,434.3h-27.7c-1.8,0-3.3,1.5-3.3,3.3v42.7h-34.6v-42.7c0-1.8-1.5-3.3-3.3-3.3h-27.9c-1.8,0-3.3,1.5-3.3,3.3v115.7
	c0,1.8,1.5,3.3,3.3,3.3h27.9c1.8,0,3.3-1.5,3.3-3.3v-45.1h34.6v45.1c0,1.8,1.5,3.3,3.3,3.3h27.7c1.8,0,3.3-1.5,3.3-3.3V437.6
	C717.4,435.8,715.9,434.3,714.2,434.3"/>
<path d="M416.1,459h17.6c5.2,0,9.2,1.4,11.9,4.3c2.7,2.8,4.1,6.8,4.1,11.7c0,5-1.4,8.9-4,11.7c-2.7,2.8-6.7,4.2-12,4.2h-17.6
	L416.1,459z M416.1,457.4L416.1,457.4v1.6h0L416.1,457.4z M461.7,506.8c6-3.3,10.6-7.6,13.7-12.6c3.6-5.8,5.4-13.1,5.4-21.7
	c0-12.1-4.3-21.7-12.8-28.4c-8.3-6.5-19.8-9.8-34.2-9.8h-45.5c-1.8,0-3.3,1.5-3.3,3.3v115.7c0,1.8,1.5,3.3,3.3,3.3h27.9
	c1.8,0,3.3-1.5,3.3-3.3v-37.7h9.8l19.5,39.1c0.6,1.1,1.7,1.8,2.9,1.8h29.9c1.8,0,3.3-1.5,3.3-3.3v-1.2c0-0.3-0.1-0.5-0.2-0.7
	L461.7,506.8z"/>
<path d="M841.3,436.1c-0.5-1.1-1.7-1.8-2.9-1.8H735.6c-1.2,0-2.4,0.7-2.9,1.8c-0.5,1.1-0.4,2.4,0.3,3.4l36.5,47.9v65.8
	c0,1.8,1.5,3.3,3.3,3.3h28.3c1.8,0,3.3-1.5,3.3-3.3v-65.8l36.6-47.9C841.7,438.5,841.9,437.2,841.3,436.1"/>
<path class="st0" d="M787,501.8c-3.1,0-5.7-2.5-5.7-5.7v-4.8c0-3.1,2.6-5.7,5.7-5.7c3.1,0,5.7,2.5,5.7,5.7v4.8
	C792.7,499.3,790.2,501.8,787,501.8z"/>
<g>
	<path d="M596.2,576.7h-0.8l5.6,14l-0.9,2.3c-0.4,1-0.8,1.7-1.3,2.1c-0.5,0.4-1.1,0.6-1.8,0.6c-0.4,0-0.7,0-0.9-0.1l0,0.7
		c0.2,0.1,0.5,0.1,1,0.1c1.6,0,2.7-0.8,3.4-2.5l0.3-0.8l6.3-16.5h-0.8l-4.9,12.7l-0.1,0.3L596.2,576.7z M591.5,588.6
		c-0.8,1.2-1.9,1.7-3.4,1.7c-1.2,0-2.2-0.3-3-0.8s-1.4-1.3-1.8-2.3v-6.4c0.4-1.2,1-2.1,1.8-2.7c0.8-0.6,1.8-0.9,3-0.9
		c1.4,0,2.6,0.6,3.4,1.7c0.8,1.1,1.2,2.7,1.2,4.7C592.7,585.8,592.3,587.5,591.5,588.6 M593.4,583.7c0-2.3-0.5-4-1.4-5.3
		c-0.9-1.3-2.2-1.9-3.9-1.9c-1.1,0-2,0.2-2.8,0.7c-0.8,0.5-1.5,1.2-2,2.1v-8.5h-0.7v20h0.7v-2.2c0.5,0.8,1.1,1.4,2,1.8
		c0.8,0.4,1.8,0.7,2.8,0.7c1.6,0,2.9-0.6,3.9-1.9s1.4-3,1.4-5.2V583.7z"/>
	<path d="M801.2,573.2c-0.9-0.9-2-1.6-3.2-2c-1.2-0.5-2.5-0.7-4-0.7c-1.5,0-2.8,0.2-4,0.7c-1.2,0.5-2.3,1.1-3.2,2.1
		c-1,1-1.8,2.1-2.3,3.4c-0.5,1.3-0.8,2.7-0.8,4.2c0,1.5,0.3,2.9,0.8,4.2c0.5,1.3,1.3,2.4,2.3,3.4c0.9,0.9,2,1.6,3.2,2
		c1.2,0.5,2.6,0.7,4,0.7c2,0,3.8-0.4,5.3-1.3c1.5-0.9,2.7-2.1,3.7-3.7c0.5-0.8,0.8-1.7,1-2.7c0.2-1,0.3-2.1,0.3-3.3v-0.6h-8v2.4h5.3
		c-0.3,2.1-1.2,3.8-2.5,5c-1.4,1.2-3.1,1.8-5.1,1.8c-1.1,0-2-0.2-2.9-0.5c-0.9-0.4-1.7-0.9-2.4-1.6c-0.8-0.8-1.3-1.7-1.7-2.7
		c-0.4-1-0.6-2.1-0.6-3.2c0-1.2,0.2-2.2,0.6-3.2c0.4-1,1-1.9,1.7-2.7c0.7-0.7,1.5-1.2,2.4-1.6c0.9-0.4,1.9-0.5,2.9-0.5
		c1.1,0,2.1,0.2,3,0.6c0.9,0.4,1.7,0.9,2.4,1.6L801.2,573.2z M767.2,590.8v-13.2c0-0.5,0-1.1-0.1-1.7c-0.1-0.6-0.2-1.2-0.3-1.9
		c0.1,0.3,0.3,0.7,0.4,1c0.2,0.3,0.4,0.8,0.8,1.3l10.1,14.4h2.1v-20h-2.5v13.3c0,0.4,0,0.9,0.1,1.5c0.1,0.5,0.2,1.1,0.4,1.7
		c-0.2-0.5-0.4-1-0.7-1.4c-0.2-0.4-0.5-0.9-0.8-1.2l-9.7-13.8h-2.4v20H767.2z M760,570.9h-2.6v20h2.6V570.9z M750.9,573.2
		c-0.9-0.9-2-1.6-3.2-2c-1.2-0.5-2.5-0.7-4-0.7c-1.5,0-2.8,0.2-4,0.7c-1.2,0.5-2.3,1.1-3.2,2.1c-1,1-1.8,2.1-2.3,3.4
		c-0.5,1.3-0.8,2.7-0.8,4.2c0,1.5,0.3,2.9,0.8,4.2c0.5,1.3,1.3,2.4,2.3,3.4c0.9,0.9,2,1.6,3.2,2c1.2,0.5,2.6,0.7,4,0.7
		c2,0,3.8-0.4,5.3-1.3c1.5-0.9,2.7-2.1,3.7-3.7c0.5-0.8,0.8-1.7,1-2.7c0.2-1,0.3-2.1,0.3-3.3v-0.6h-8v2.4h5.3
		c-0.3,2.1-1.2,3.8-2.5,5c-1.4,1.2-3.1,1.8-5.1,1.8c-1.1,0-2-0.2-2.9-0.5c-0.9-0.4-1.7-0.9-2.4-1.6c-0.8-0.8-1.3-1.7-1.7-2.7
		c-0.4-1-0.6-2.1-0.6-3.2c0-1.2,0.2-2.2,0.6-3.2c0.4-1,1-1.9,1.7-2.7c0.7-0.7,1.5-1.2,2.4-1.6c0.9-0.4,1.9-0.5,2.9-0.5
		c1.1,0,2.1,0.2,3,0.6c0.9,0.4,1.7,0.9,2.4,1.6L750.9,573.2z M716.9,590.8v-13.2c0-0.5,0-1.1-0.1-1.7c-0.1-0.6-0.2-1.2-0.3-1.9
		c0.1,0.3,0.3,0.7,0.4,1c0.2,0.3,0.4,0.8,0.8,1.3l10.1,14.4h2.1v-20h-2.5v13.3c0,0.4,0,0.9,0.1,1.5c0.1,0.5,0.2,1.1,0.4,1.7
		c-0.2-0.5-0.4-1-0.7-1.4c-0.2-0.4-0.5-0.9-0.8-1.2l-9.7-13.8h-2.4v20H716.9z M709.9,590.8v-2.3h-7.8v-6.7h6v-2.3h-6v-6.2h7.8v-2.4
		h-10.4v20H709.9z M696.4,590.8v-2.4h-6.9v-17.5H687v20H696.4z M683.9,590.8v-2.4H677v-17.5h-2.6v20H683.9z M656.1,590.8l1.8-4.6
		h9.4l1.8,4.6h3l-8.4-20h-2.2l-8.1,20H656.1z M661.9,575.8c0-0.1,0.1-0.4,0.2-0.7c0.1-0.3,0.2-0.7,0.4-1.2c0.1,0.4,0.3,0.8,0.4,1.2
		c0.1,0.3,0.2,0.6,0.2,0.7l3.1,8h-7.5L661.9,575.8z M637.8,590.8v-9.1h10.5v9.1h2.6v-20h-2.6v8.5h-10.5v-8.5h-2.6v20H637.8z
		 M631.8,573c-0.9-0.9-2-1.5-3.1-1.9c-1.2-0.4-2.5-0.6-3.9-0.6c-1.5,0-2.8,0.2-4,0.7c-1.2,0.5-2.3,1.1-3.2,2.1c-1,1-1.8,2.1-2.3,3.4
		c-0.5,1.3-0.8,2.7-0.8,4.2c0,1.5,0.3,2.9,0.8,4.2c0.5,1.3,1.3,2.4,2.3,3.4c0.9,0.9,2,1.6,3.2,2c1.2,0.5,2.6,0.7,4,0.7
		c1.4,0,2.8-0.2,4-0.7c1.2-0.5,2.3-1.1,3.2-2.1l-1.7-1.9c-0.7,0.7-1.5,1.3-2.4,1.7c-0.9,0.4-1.9,0.6-3.1,0.6c-1.1,0-2.1-0.2-3-0.5
		c-0.9-0.4-1.7-0.9-2.4-1.6c-0.8-0.8-1.3-1.7-1.7-2.7c-0.4-1-0.6-2.1-0.6-3.2c0-1.2,0.2-2.3,0.6-3.3c0.4-1,1-1.9,1.7-2.6
		c0.7-0.7,1.5-1.2,2.4-1.6c0.9-0.4,1.9-0.5,3-0.5c1.1,0,2,0.2,2.9,0.5s1.7,0.9,2.4,1.6L631.8,573z"/>
</g>
</svg>
