<svg width="1056" height="970" viewBox="0 0 1056 970" fill="none" xmlns="http://www.w3.org/2000/svg">
<g clip-path="url(#clip0_143_139)">
<path d="M217.219 673.18C207.187 682.395 207.187 697.333 217.219 706.548C227.251 715.763 243.514 715.763 253.546 706.548L362.736 606.25C367.805 601.594 370.234 595.58 370.234 589.566C370.234 583.552 367.699 577.441 362.736 572.882C352.704 563.667 336.442 563.667 326.41 572.882L217.219 673.18Z" fill="#00B400"/>
<path d="M217.219 263.452C207.187 272.667 207.187 287.605 217.219 296.82L326.41 397.118C336.442 406.333 352.704 406.333 362.736 397.118C367.805 392.462 370.234 386.448 370.234 380.434C370.234 374.42 367.699 368.309 362.736 363.75L253.546 263.452C243.619 254.237 227.251 254.237 217.219 263.452Z" fill="#00B400"/>
<path d="M164.525 485C164.525 497.998 176.035 508.668 190.291 508.668H344.678C358.934 508.668 370.445 498.095 370.445 485C370.445 472.002 358.934 461.332 344.678 461.332H190.186C176.035 461.429 164.525 472.002 164.525 485Z" fill="#00B400"/>
<path d="M428.102 287.993C423.773 289.933 420.922 294.104 420.922 298.566L420.922 671.434C420.922 675.896 423.667 679.97 428.102 682.007C432.432 683.947 437.712 683.462 441.619 680.843L630.749 548.341H890.842C897.917 548.341 903.725 543.006 903.725 536.507V433.881C903.725 427.382 897.917 422.047 890.842 422.047L630.749 422.047L441.619 289.254C437.712 286.441 432.538 286.053 428.102 287.993Z" fill="black"/>
<path d="M687.562 485C687.562 496.446 677.53 505.661 665.069 505.661H646.272C633.811 505.661 623.779 496.446 623.779 485C623.779 473.554 633.811 464.339 646.272 464.339H665.069C677.53 464.339 687.562 473.651 687.562 485Z" fill="#00B400"/>
<path d="M304.438 840V931H285.75V840H304.438ZM332.438 840V854.688H258.188V840H332.438ZM328.25 897.875V896.562C328.25 891.604 328.958 887.042 330.375 882.875C331.792 878.667 333.854 875.021 336.562 871.938C339.271 868.854 342.604 866.458 346.562 864.75C350.521 863 355.062 862.125 360.188 862.125C365.312 862.125 369.875 863 373.875 864.75C377.875 866.458 381.229 868.854 383.938 871.938C386.688 875.021 388.771 878.667 390.188 882.875C391.604 887.042 392.312 891.604 392.312 896.562V897.875C392.312 902.792 391.604 907.354 390.188 911.562C388.771 915.729 386.688 919.375 383.938 922.5C381.229 925.583 377.896 927.979 373.938 929.688C369.979 931.396 365.438 932.25 360.312 932.25C355.188 932.25 350.625 931.396 346.625 929.688C342.667 927.979 339.312 925.583 336.562 922.5C333.854 919.375 331.792 915.729 330.375 911.562C328.958 907.354 328.25 902.792 328.25 897.875ZM346.25 896.562V897.875C346.25 900.708 346.5 903.354 347 905.812C347.5 908.271 348.292 910.438 349.375 912.312C350.5 914.146 351.958 915.583 353.75 916.625C355.542 917.667 357.729 918.188 360.312 918.188C362.812 918.188 364.958 917.667 366.75 916.625C368.542 915.583 369.979 914.146 371.062 912.312C372.146 910.438 372.938 908.271 373.438 905.812C373.979 903.354 374.25 900.708 374.25 897.875V896.562C374.25 893.812 373.979 891.229 373.438 888.812C372.938 886.354 372.125 884.188 371 882.312C369.917 880.396 368.479 878.896 366.688 877.812C364.896 876.729 362.729 876.188 360.188 876.188C357.646 876.188 355.479 876.729 353.688 877.812C351.938 878.896 350.5 880.396 349.375 882.312C348.292 884.188 347.5 886.354 347 888.812C346.5 891.229 346.25 893.812 346.25 896.562ZM421.375 878.125V931H403.375V863.375H420.312L421.375 878.125ZM441.75 862.938L441.438 879.625C440.562 879.5 439.5 879.396 438.25 879.312C437.042 879.188 435.938 879.125 434.938 879.125C432.396 879.125 430.188 879.458 428.312 880.125C426.479 880.75 424.938 881.688 423.688 882.938C422.479 884.188 421.562 885.708 420.938 887.5C420.354 889.292 420.021 891.333 419.938 893.625L416.312 892.5C416.312 888.125 416.75 884.104 417.625 880.438C418.5 876.729 419.771 873.5 421.438 870.75C423.146 868 425.229 865.875 427.688 864.375C430.146 862.875 432.958 862.125 436.125 862.125C437.125 862.125 438.146 862.208 439.188 862.375C440.229 862.5 441.083 862.688 441.75 862.938ZM476.938 918.188C479.146 918.188 481.104 917.771 482.812 916.938C484.521 916.062 485.854 914.854 486.812 913.312C487.812 911.729 488.333 909.875 488.375 907.75H505.312C505.271 912.5 504 916.729 501.5 920.438C499 924.104 495.646 927 491.438 929.125C487.229 931.208 482.521 932.25 477.312 932.25C472.062 932.25 467.479 931.375 463.562 929.625C459.688 927.875 456.458 925.458 453.875 922.375C451.292 919.25 449.354 915.625 448.062 911.5C446.771 907.333 446.125 902.875 446.125 898.125V896.312C446.125 891.521 446.771 887.062 448.062 882.938C449.354 878.771 451.292 875.146 453.875 872.062C456.458 868.938 459.688 866.5 463.562 864.75C467.438 863 471.979 862.125 477.188 862.125C482.729 862.125 487.583 863.188 491.75 865.312C495.958 867.438 499.25 870.479 501.625 874.438C504.042 878.354 505.271 883 505.312 888.375H488.375C488.333 886.125 487.854 884.083 486.938 882.25C486.062 880.417 484.771 878.958 483.062 877.875C481.396 876.75 479.333 876.188 476.875 876.188C474.25 876.188 472.104 876.75 470.438 877.875C468.771 878.958 467.479 880.458 466.562 882.375C465.646 884.25 465 886.396 464.625 888.812C464.292 891.188 464.125 893.688 464.125 896.312V898.125C464.125 900.75 464.292 903.271 464.625 905.688C464.958 908.104 465.583 910.25 466.5 912.125C467.458 914 468.771 915.479 470.438 916.562C472.104 917.646 474.271 918.188 476.938 918.188ZM533.312 835V931H515.312V835H533.312ZM530.75 894.812H525.812C525.854 890.104 526.479 885.771 527.688 881.812C528.896 877.812 530.625 874.354 532.875 871.438C535.125 868.479 537.812 866.188 540.938 864.562C544.104 862.938 547.604 862.125 551.438 862.125C554.771 862.125 557.792 862.604 560.5 863.562C563.25 864.479 565.604 865.979 567.562 868.062C569.562 870.104 571.104 872.792 572.188 876.125C573.271 879.458 573.812 883.5 573.812 888.25V931H555.688V888.125C555.688 885.125 555.25 882.771 554.375 881.062C553.542 879.312 552.312 878.083 550.688 877.375C549.104 876.625 547.146 876.25 544.812 876.25C542.229 876.25 540.021 876.729 538.188 877.688C536.396 878.646 534.958 879.979 533.875 881.688C532.792 883.354 532 885.312 531.5 887.562C531 889.812 530.75 892.229 530.75 894.812ZM607.562 923.375L625.5 863.375H644.812L617.625 941.188C617.042 942.896 616.25 944.729 615.25 946.688C614.292 948.646 612.979 950.5 611.312 952.25C609.688 954.042 607.625 955.5 605.125 956.625C602.667 957.75 599.646 958.312 596.062 958.312C594.354 958.312 592.958 958.208 591.875 958C590.792 957.792 589.5 957.5 588 957.125V943.938C588.458 943.938 588.938 943.938 589.438 943.938C589.938 943.979 590.417 944 590.875 944C593.25 944 595.188 943.729 596.688 943.188C598.188 942.646 599.396 941.812 600.312 940.688C601.229 939.604 601.958 938.188 602.5 936.438L607.562 923.375ZM600.062 863.375L614.75 912.375L617.312 931.438L605.062 932.75L580.75 863.375H600.062ZM722 855.562L697.25 931H677.312L711.125 840H723.812L722 855.562ZM742.562 931L717.75 855.562L715.75 840H728.562L762.562 931H742.562ZM741.438 897.125V911.812H693.375V897.125H741.438ZM790.938 840V931H772.25V840H790.938Z" fill="url(#paint0_linear_143_139)"/>
<path d="M304.438 840V931H285.75V840H304.438ZM332.438 840V854.688H258.188V840H332.438ZM328.25 897.875V896.562C328.25 891.604 328.958 887.042 330.375 882.875C331.792 878.667 333.854 875.021 336.562 871.938C339.271 868.854 342.604 866.458 346.562 864.75C350.521 863 355.062 862.125 360.188 862.125C365.312 862.125 369.875 863 373.875 864.75C377.875 866.458 381.229 868.854 383.938 871.938C386.688 875.021 388.771 878.667 390.188 882.875C391.604 887.042 392.312 891.604 392.312 896.562V897.875C392.312 902.792 391.604 907.354 390.188 911.562C388.771 915.729 386.688 919.375 383.938 922.5C381.229 925.583 377.896 927.979 373.938 929.688C369.979 931.396 365.438 932.25 360.312 932.25C355.188 932.25 350.625 931.396 346.625 929.688C342.667 927.979 339.312 925.583 336.562 922.5C333.854 919.375 331.792 915.729 330.375 911.562C328.958 907.354 328.25 902.792 328.25 897.875ZM346.25 896.562V897.875C346.25 900.708 346.5 903.354 347 905.812C347.5 908.271 348.292 910.438 349.375 912.312C350.5 914.146 351.958 915.583 353.75 916.625C355.542 917.667 357.729 918.188 360.312 918.188C362.812 918.188 364.958 917.667 366.75 916.625C368.542 915.583 369.979 914.146 371.062 912.312C372.146 910.438 372.938 908.271 373.438 905.812C373.979 903.354 374.25 900.708 374.25 897.875V896.562C374.25 893.812 373.979 891.229 373.438 888.812C372.938 886.354 372.125 884.188 371 882.312C369.917 880.396 368.479 878.896 366.688 877.812C364.896 876.729 362.729 876.188 360.188 876.188C357.646 876.188 355.479 876.729 353.688 877.812C351.938 878.896 350.5 880.396 349.375 882.312C348.292 884.188 347.5 886.354 347 888.812C346.5 891.229 346.25 893.812 346.25 896.562ZM421.375 878.125V931H403.375V863.375H420.312L421.375 878.125ZM441.75 862.938L441.438 879.625C440.562 879.5 439.5 879.396 438.25 879.312C437.042 879.188 435.938 879.125 434.938 879.125C432.396 879.125 430.188 879.458 428.312 880.125C426.479 880.75 424.938 881.688 423.688 882.938C422.479 884.188 421.562 885.708 420.938 887.5C420.354 889.292 420.021 891.333 419.938 893.625L416.312 892.5C416.312 888.125 416.75 884.104 417.625 880.438C418.5 876.729 419.771 873.5 421.438 870.75C423.146 868 425.229 865.875 427.688 864.375C430.146 862.875 432.958 862.125 436.125 862.125C437.125 862.125 438.146 862.208 439.188 862.375C440.229 862.5 441.083 862.688 441.75 862.938ZM476.938 918.188C479.146 918.188 481.104 917.771 482.812 916.938C484.521 916.062 485.854 914.854 486.812 913.312C487.812 911.729 488.333 909.875 488.375 907.75H505.312C505.271 912.5 504 916.729 501.5 920.438C499 924.104 495.646 927 491.438 929.125C487.229 931.208 482.521 932.25 477.312 932.25C472.062 932.25 467.479 931.375 463.562 929.625C459.688 927.875 456.458 925.458 453.875 922.375C451.292 919.25 449.354 915.625 448.062 911.5C446.771 907.333 446.125 902.875 446.125 898.125V896.312C446.125 891.521 446.771 887.062 448.062 882.938C449.354 878.771 451.292 875.146 453.875 872.062C456.458 868.938 459.688 866.5 463.562 864.75C467.438 863 471.979 862.125 477.188 862.125C482.729 862.125 487.583 863.188 491.75 865.312C495.958 867.438 499.25 870.479 501.625 874.438C504.042 878.354 505.271 883 505.312 888.375H488.375C488.333 886.125 487.854 884.083 486.938 882.25C486.062 880.417 484.771 878.958 483.062 877.875C481.396 876.75 479.333 876.188 476.875 876.188C474.25 876.188 472.104 876.75 470.438 877.875C468.771 878.958 467.479 880.458 466.562 882.375C465.646 884.25 465 886.396 464.625 888.812C464.292 891.188 464.125 893.688 464.125 896.312V898.125C464.125 900.75 464.292 903.271 464.625 905.688C464.958 908.104 465.583 910.25 466.5 912.125C467.458 914 468.771 915.479 470.438 916.562C472.104 917.646 474.271 918.188 476.938 918.188ZM533.312 835V931H515.312V835H533.312ZM530.75 894.812H525.812C525.854 890.104 526.479 885.771 527.688 881.812C528.896 877.812 530.625 874.354 532.875 871.438C535.125 868.479 537.812 866.188 540.938 864.562C544.104 862.938 547.604 862.125 551.438 862.125C554.771 862.125 557.792 862.604 560.5 863.562C563.25 864.479 565.604 865.979 567.562 868.062C569.562 870.104 571.104 872.792 572.188 876.125C573.271 879.458 573.812 883.5 573.812 888.25V931H555.688V888.125C555.688 885.125 555.25 882.771 554.375 881.062C553.542 879.312 552.312 878.083 550.688 877.375C549.104 876.625 547.146 876.25 544.812 876.25C542.229 876.25 540.021 876.729 538.188 877.688C536.396 878.646 534.958 879.979 533.875 881.688C532.792 883.354 532 885.312 531.5 887.562C531 889.812 530.75 892.229 530.75 894.812ZM607.562 923.375L625.5 863.375H644.812L617.625 941.188C617.042 942.896 616.25 944.729 615.25 946.688C614.292 948.646 612.979 950.5 611.312 952.25C609.688 954.042 607.625 955.5 605.125 956.625C602.667 957.75 599.646 958.312 596.062 958.312C594.354 958.312 592.958 958.208 591.875 958C590.792 957.792 589.5 957.5 588 957.125V943.938C588.458 943.938 588.938 943.938 589.438 943.938C589.938 943.979 590.417 944 590.875 944C593.25 944 595.188 943.729 596.688 943.188C598.188 942.646 599.396 941.812 600.312 940.688C601.229 939.604 601.958 938.188 602.5 936.438L607.562 923.375ZM600.062 863.375L614.75 912.375L617.312 931.438L605.062 932.75L580.75 863.375H600.062ZM722 855.562L697.25 931H677.312L711.125 840H723.812L722 855.562ZM742.562 931L717.75 855.562L715.75 840H728.562L762.562 931H742.562ZM741.438 897.125V911.812H693.375V897.125H741.438ZM790.938 840V931H772.25V840H790.938Z" fill="black" fill-opacity="0.2"/>
</g>
<defs>
<linearGradient id="paint0_linear_143_139" x1="36" y1="891" x2="1020" y2="891" gradientUnits="userSpaceOnUse">
<stop stop-color="#7CE97C"/>
<stop offset="1" stop-color="#006211"/>
</linearGradient>
<clipPath id="clip0_143_139">
<rect width="970" height="1056" fill="white" transform="matrix(0 -1 1 0 0 970)"/>
</clipPath>
</defs>
</svg>
