<svg width="700" height="472" viewBox="0 0 700 472" fill="none" xmlns="http://www.w3.org/2000/svg">
<path d="M650.1 41.7999C659.6 32.2999 659.6 16.8999 650.1 7.3999C640.6 -2.1001 625.2 -2.1001 615.7 7.3999L512.3 110.8C507.5 115.6 505.2 121.8 505.2 128C505.2 134.2 507.6 140.5 512.3 145.2C521.8 154.7 537.2 154.7 546.7 145.2L650.1 41.7999Z" fill="#00B400"/>
<path d="M650.1 464.2C659.6 454.7 659.6 439.3 650.1 429.8L546.7 326.4C537.2 316.9 521.8 316.9 512.3 326.4C507.5 331.2 505.2 337.4 505.2 343.6C505.2 349.8 507.6 356.1 512.3 360.8L615.7 464.2C625.1 473.7 640.6 473.7 650.1 464.2Z" fill="#00B400"/>
<path d="M700 235.8C700 222.4 689.1 211.4 675.6 211.4H529.4C515.9 211.4 505 222.3 505 235.8C505 249.2 515.9 260.2 529.4 260.2H675.7C689.1 260.1 700 249.2 700 235.8Z" fill="#00B400"/>
<path d="M450.4 438.9C454.5 436.9 457.2 432.6 457.2 428V43.5999C457.2 38.9999 454.6 34.7999 450.4 32.6999C446.3 30.6999 441.3 31.1999 437.6 33.8999L258.5 170.5L12.2 170.5C5.50002 170.5 1.52588e-05 176 1.52588e-05 182.7V288.5C1.52588e-05 295.2 5.50002 300.7 12.2 300.7H258.5L437.6 437.6C441.3 440.5 446.2 440.9 450.4 438.9Z" fill="white"/>
<path d="M204.7 235.8C204.7 224 214.2 214.5 226 214.5H243.8C255.6 214.5 265.1 224 265.1 235.8C265.1 247.6 255.6 257.1 243.8 257.1H226C214.2 257.1 204.7 247.5 204.7 235.8Z" fill="#00B400"/>
</svg>
